<?xml version="1.0" standalone="no"?>
<!DOCTYPE svg PUBLIC "-//W3C//DTD SVG 20010904//EN"
 "http://www.w3.org/TR/2001/REC-SVG-20010904/DTD/svg10.dtd">
<svg version="1.0" xmlns="http://www.w3.org/2000/svg"
 width="163.000000pt" height="175.000000pt" viewBox="0 0 163.000000 175.000000"
 preserveAspectRatio="xMidYMid meet">
<metadata>
Created by potrace 1.10, written by Peter Selinger 2001-2011
</metadata>
<g transform="translate(0.000000,175.000000) scale(0.100000,-0.100000)"
fill="#000000" stroke="none">
<path d="M1101 1639 c-20 -23 -57 -63 -83 -90 -47 -48 -49 -49 -108 -49 -54 0
-64 -3 -98 -35 l-39 -34 -21 29 c-22 29 -55 43 -136 55 -31 5 -53 20 -98 65
-84 86 -154 100 -179 37 -20 -50 -99 -138 -138 -154 -84 -33 -101 -53 -101
-118 0 -42 45 -97 104 -127 23 -11 53 -32 68 -46 24 -22 28 -23 34 -9 10 26
-1 43 -58 87 -68 53 -93 96 -74 125 30 44 84 31 126 -32 32 -48 32 -48 27
-148 -3 -60 -15 -137 -30 -192 -23 -85 -33 -102 -113 -210 -48 -64 -103 -134
-122 -155 -29 -32 -31 -38 -16 -38 48 0 206 -188 221 -262 5 -26 23 -40 23
-18 0 6 11 22 25 36 l25 24 39 -39 c46 -46 114 -83 186 -100 89 -22 172 -86
211 -163 28 -55 40 -60 49 -18 3 16 24 46 46 67 39 39 65 54 194 114 46 21 90
52 128 91 32 32 64 58 71 58 7 0 21 -9 31 -20 19 -21 55 -27 55 -9 0 24 106
172 156 218 30 27 54 52 54 55 0 3 -39 37 -86 77 -142 119 -224 271 -240 450
-13 134 50 259 131 259 24 0 37 -6 45 -20 9 -18 4 -28 -44 -78 -55 -58 -100
-137 -89 -156 4 -5 18 4 32 20 14 16 48 47 75 68 110 89 117 187 15 225 -112
41 -129 56 -178 153 -11 22 -54 48 -79 48 -3 0 -21 -19 -41 -41z m-653 -46
c30 -20 56 -43 48 -43 -3 0 6 -11 20 -25 19 -19 23 -29 15 -39 -6 -7 -8 -16
-4 -20 9 -9 -29 4 -43 15 -6 5 -15 5 -19 1 -5 -4 -5 -2 -2 4 8 15 -18 38 -33
29 -5 -3 -10 -1 -10 6 0 8 -5 7 -17 -2 -14 -12 -15 -12 -9 -1 7 11 4 12 -11 4
-29 -16 -46 -40 -37 -53 4 -7 3 -9 -3 -6 -13 8 -26 -35 -17 -56 3 -8 1 -18 -5
-22 -6 -3 -11 -1 -11 5 0 6 -12 15 -26 20 -14 6 -22 14 -19 20 3 5 1 10 -5 10
-6 0 7 18 30 40 23 22 38 40 33 40 -4 0 2 8 14 18 12 9 23 24 25 32 4 18 28
39 46 40 7 0 25 -8 40 -17z m777 -35 c12 -25 33 -48 53 -59 l32 -17 -24 -15
c-27 -18 -91 -117 -76 -117 7 0 7 -8 -1 -21 -8 -16 -13 -18 -19 -9 -9 15 -20
15 -32 -2 -7 -9 -8 -8 -4 5 3 10 6 26 6 34 0 12 3 13 13 4 19 -15 27 -4 27 35
0 45 -19 83 -44 90 -35 8 -79 9 -119 0 -24 -4 -37 -4 -33 2 17 28 163 111 196
111 3 0 14 -18 25 -41z m-781 -89 c22 -17 26 -28 26 -73 0 -29 -9 -79 -21
-112 -21 -60 -30 -137 -17 -149 12 -12 28 5 28 29 0 13 14 42 30 64 28 39 29
42 10 42 -24 0 -25 8 -5 46 9 18 11 32 5 39 -7 8 -3 18 10 30 11 10 20 28 20
41 0 32 17 39 41 18 15 -13 22 -15 31 -6 19 19 40 15 33 -7 -3 -11 -1 -22 5
-26 18 -11 10 -25 -15 -25 -16 0 -25 -6 -25 -15 0 -18 5 -18 55 0 54 19 65 18
65 -5 0 -19 -22 -26 -70 -21 -13 2 -13 1 0 -8 8 -6 23 -8 34 -5 13 4 17 2 14
-7 -3 -8 -21 -15 -41 -17 -44 -4 -49 -19 -9 -28 52 -11 69 -22 75 -49 5 -27 4
-27 -35 -22 -41 6 -68 1 -68 -12 0 -13 49 -31 84 -31 33 0 62 -20 49 -33 -12
-13 -104 -7 -133 8 -28 15 -30 14 -47 -11 -14 -22 -15 -31 -5 -57 10 -27 9
-34 -9 -53 -23 -24 -20 -57 5 -48 15 6 50 -36 38 -47 -14 -12 -83 3 -90 20 -3
9 -14 22 -24 29 -22 16 -23 38 -3 46 8 3 15 10 15 16 0 6 -18 -2 -40 -16 -43
-28 -52 -54 -21 -54 23 0 37 -18 25 -30 -5 -4 -24 -6 -41 -3 -27 4 -33 10 -33
30 0 13 -5 33 -10 43 -9 16 -5 22 19 35 43 22 45 31 20 72 -30 48 -30 120 0
186 35 79 26 167 -17 167 -14 0 -13 -37 4 -104 7 -30 -8 -49 -32 -39 -17 6
-13 135 5 157 18 21 33 20 65 -5z m561 -5 c18 6 18 5 5 -29 -5 -14 -14 -24
-19 -20 -5 3 -12 1 -16 -5 -3 -5 -11 -10 -16 -10 -6 0 -8 4 -4 9 3 5 0 13 -6
17 -8 5 -9 3 -4 -6 5 -9 4 -11 -3 -6 -7 4 -12 14 -12 21 0 8 -6 13 -12 11 -7
-1 -10 -1 -5 1 4 3 4 9 1 15 -4 6 3 5 15 -1 17 -10 22 -9 27 4 5 12 10 13 20
4 8 -6 21 -9 29 -5z m-273 -38 c7 5 9 1 5 -9 -3 -10 -2 -17 2 -17 5 0 11 6 14
13 3 6 4 2 4 -10 -1 -13 -2 -23 -4 -23 -1 0 -14 11 -29 25 -21 19 -29 22 -36
13 -5 -8 -8 -2 -8 16 l0 30 21 -22 c11 -12 25 -19 31 -16z m178 -5 c0 -5 -6
-11 -13 -14 -7 -3 -24 -25 -37 -51 -46 -87 21 -84 127 6 54 46 102 66 123 53
15 -9 12 -62 -5 -78 -8 -9 -32 -21 -52 -27 -21 -7 -69 -28 -106 -48 -52 -27
-73 -44 -87 -72 -14 -28 -16 -40 -7 -49 8 -8 2 -11 -24 -11 l-34 0 5 122 c5
124 15 157 50 171 24 9 60 8 60 -2z m45 -48 c-18 -13 -35 -17 -35 -9 0 21 14
33 32 28 20 -5 20 -6 3 -19z m-197 -57 c0 -6 3 -27 5 -46 2 -19 2 -27 0 -17
-3 10 -10 16 -18 13 -16 -6 -26 15 -19 41 6 21 30 27 32 9z m415 -53 c-5 -40
-6 -41 -50 -46 -29 -3 -57 -15 -83 -36 -30 -24 -44 -29 -60 -23 -22 8 -22 9
10 35 17 15 44 30 58 33 46 11 101 43 112 65 16 29 20 21 13 -28z m-226 -60
c-16 -4 -18 -11 -12 -39 5 -31 4 -34 -20 -34 -16 0 -25 6 -25 16 0 25 33 63
55 63 18 -1 18 -2 2 -6z m224 -65 c11 -13 25 -33 30 -46 12 -31 11 -129 -1
-137 -5 -3 -10 2 -10 11 0 15 -3 15 -23 -4 -41 -39 -92 -34 -129 12 -31 37
-20 121 20 161 32 33 83 34 113 3z m-422 -65 c0 -16 -3 -22 -6 -15 -6 16 -33
15 -33 -2 0 -7 -3 -35 -7 -61 -6 -46 -6 -47 18 -40 13 4 31 13 39 21 12 12 17
11 35 -6 11 -11 32 -21 45 -22 24 -3 25 -1 22 52 -4 62 -15 82 -40 73 -14 -6
-15 -4 -5 8 8 9 32 14 75 14 51 0 63 -3 66 -17 2 -12 -2 -15 -17 -11 -17 4
-20 -2 -26 -40 -4 -24 -5 -53 -3 -62 4 -25 28 -31 28 -8 0 15 -2 16 -11 3 -9
-13 -10 -13 -6 0 2 8 11 16 20 18 28 6 22 -46 -5 -53 -22 -6 -23 -10 -20 -85
3 -68 7 -82 24 -95 19 -13 20 -15 5 -21 -10 -3 -24 -1 -31 6 -11 8 -20 8 -35
1 -20 -11 -51 -5 -51 9 0 4 7 10 15 14 12 4 15 24 15 87 l0 81 -27 -7 c-35 -9
-61 -9 -95 0 l-28 7 0 -74 c0 -85 14 -115 50 -105 16 4 20 3 13 -4 -6 -6 -41
-13 -78 -15 -67 -3 -67 -3 -49 17 25 28 28 165 3 161 -15 -2 -15 2 -2 42 13
39 13 51 1 88 -10 33 -18 42 -32 40 -11 -2 -15 1 -11 8 5 7 21 9 46 5 21 -4
46 -2 56 4 30 18 43 13 42 -16z m59 -42 c3 -16 0 -21 -8 -16 -7 4 -16 2 -20
-5 -5 -9 -9 -9 -14 -1 -4 6 -3 11 2 11 6 0 8 9 5 21 -5 17 -2 20 13 17 11 -2
20 -13 22 -27z m-456 -81 c4 -24 1 -30 -14 -30 -20 0 -21 4 -12 38 9 31 21 28
26 -8z m689 -22 c17 4 9 -7 -12 -18 -25 -14 -59 7 -37 22 10 8 10 11 0 15 -6
2 -9 9 -6 14 3 6 15 0 26 -13 11 -13 24 -22 29 -20z m139 -43 c-7 -8 -18 -15
-24 -15 -6 0 -5 4 3 9 11 7 8 11 -10 17 -24 8 -23 8 6 14 34 6 43 -3 25 -25z
m92 -2 c23 -24 101 -190 122 -260 9 -27 -3 -113 -14 -113 -5 0 -11 8 -14 18
-3 9 -3 -7 0 -35 7 -67 -20 -75 -30 -9 -3 24 -16 32 -16 10 -1 -18 -1 -18 -14
-2 -7 10 -16 15 -19 11 -4 -3 -7 5 -7 20 0 14 -4 29 -10 32 -6 4 -10 -5 -10
-19 0 -14 -4 -26 -10 -26 -6 0 -10 29 -10 66 0 58 -2 65 -15 54 -13 -11 -15
-8 -15 13 0 14 -4 28 -9 31 -5 3 -11 -25 -14 -62 -4 -37 -10 -92 -15 -122 -11
-62 -7 -74 13 -46 15 20 45 15 45 -8 0 -9 -7 -12 -19 -9 -22 6 -44 -26 -35
-50 3 -8 1 -18 -5 -22 -6 -3 -11 -1 -11 4 0 24 -20 9 -28 -21 -8 -27 -11 -30
-17 -15 -5 11 -1 34 10 57 11 24 15 49 11 65 -7 26 -26 26 -26 -1 0 -8 -4 -14
-8 -14 -4 0 -14 -17 -22 -37 -8 -21 -16 -41 -18 -44 -1 -4 6 -9 18 -12 32 -8
24 -27 -9 -21 -24 5 -30 2 -36 -16 -4 -13 -12 -19 -21 -16 -9 3 -26 -6 -40
-21 -26 -28 -40 -26 -30 4 3 11 22 27 42 36 26 13 41 31 60 72 28 60 26 97 -8
170 l-18 40 5 -62 c4 -57 -5 -83 -18 -50 -3 6 -6 0 -6 -15 -1 -29 -15 -37 -25
-15 -3 6 -5 -6 -4 -28 1 -26 -2 -39 -10 -38 -7 2 -11 -6 -9 -18 1 -12 -4 -24
-10 -26 -9 -3 -13 5 -13 25 0 16 -10 55 -22 88 -15 42 -21 84 -22 146 -1 96 8
117 42 99 16 -9 30 -7 62 5 37 15 54 34 30 34 -20 0 -9 15 22 33 29 16 30 20
15 28 -9 6 -17 17 -17 24 0 11 -12 15 -40 15 -44 0 -49 6 -22 26 26 21 51 16
64 -10 11 -27 44 -47 35 -22 -3 7 0 19 6 25 8 8 5 11 -11 11 -12 0 -22 5 -22
10 0 26 83 -2 104 -35 9 -14 16 -38 16 -55 0 -39 10 -38 39 5 20 29 23 43 18
80 -8 54 6 59 45 18z m-686 -16 c4 -3 -15 -67 -22 -76 -2 -2 -24 14 -49 34
-44 37 -47 38 -85 26 -40 -12 -72 -45 -104 -108 -18 -35 -36 -42 -55 -20 -8
11 -2 31 27 87 l37 73 124 -6 c68 -3 125 -8 127 -10z m234 -41 c0 -44 -10 -76
-24 -76 -24 0 -38 19 -42 56 -3 22 -7 44 -8 49 -2 6 12 9 35 7 36 -4 39 -6 39
-36z m-330 -14 c19 -16 21 -22 11 -40 -14 -26 -38 -28 -63 -5 -48 44 1 86 52
45z m128 -44 c-15 -28 -38 -27 -31 2 3 11 11 16 19 13 8 -3 14 1 14 8 0 7 2
10 5 7 3 -3 0 -16 -7 -30z m-378 9 c-9 -7 -15 -24 -14 -39 2 -19 -1 -25 -11
-22 -7 3 -16 1 -20 -5 -3 -6 -12 -11 -18 -11 -7 0 -6 4 3 10 13 9 13 11 0 21
-12 8 -10 9 8 4 13 -4 23 -2 23 4 1 6 2 16 3 21 0 6 8 15 16 20 21 14 28 12
10 -3z m221 -62 c11 -4 17 -11 14 -16 -4 -5 -1 -9 5 -9 6 0 22 -11 36 -25 14
-14 32 -25 40 -25 8 0 13 -4 10 -9 -3 -4 5 -13 18 -19 25 -11 78 -74 75 -88
-3 -17 14 -74 22 -74 16 0 9 -19 -15 -43 -16 -16 -21 -28 -15 -34 7 -7 2 -10
-13 -8 -13 1 -31 3 -40 4 -11 0 -18 9 -18 21 0 11 -9 29 -20 40 -11 11 -18 20
-15 20 3 0 -3 8 -12 18 -10 10 -23 17 -29 15 -7 -3 -15 1 -20 8 -5 8 -3 10 7
4 8 -5 -5 11 -28 34 -28 28 -48 41 -58 37 -9 -3 -13 -2 -10 4 3 6 -3 10 -14
10 -12 0 -22 7 -22 15 -1 8 -3 20 -4 25 -1 6 -3 15 -4 20 0 6 -6 10 -12 10 -6
0 -17 7 -25 15 -18 18 -4 20 15 3 11 -11 11 -9 1 11 -6 13 -8 21 -3 18 9 -5
43 26 43 39 0 2 6 11 13 18 10 11 16 10 36 -10 12 -13 32 -26 42 -29z m89 21
c0 -7 10 -26 21 -41 19 -23 27 -26 63 -22 23 2 64 11 93 20 l52 15 5 -42 c3
-22 8 -144 11 -270 l6 -229 -52 42 c-28 22 -58 41 -65 41 -19 0 -18 9 3 32 15
17 15 23 4 51 -7 18 -15 41 -18 52 -6 20 -6 20 15 1 12 -10 26 -34 32 -52 7
-19 16 -32 21 -29 16 10 10 87 -10 129 -10 23 -23 59 -30 82 -17 63 -51 106
-105 134 -27 14 -54 35 -59 48 -7 16 -19 22 -41 22 -34 0 -25 16 14 23 14 2
28 5 33 6 4 0 7 -5 7 -13z m917 -70 l33 -30 -25 -26 c-14 -15 -22 -30 -18 -35
5 -4 2 -5 -4 -1 -7 4 -13 15 -13 25 0 9 -5 22 -10 27 -7 7 -8 19 -1 37 7 19 7
26 -1 24 -6 -1 -13 4 -16 12 -6 18 13 7 55 -33z m-614 17 c-9 -3 -13 -28 -13
-76 0 -80 14 -143 37 -169 9 -10 13 -24 10 -32 -4 -9 -2 -18 3 -21 6 -4 10
-14 10 -24 0 -10 9 -26 20 -36 18 -16 18 -19 4 -29 -8 -7 -15 -16 -14 -21 6
-28 -1 -75 -10 -70 -5 3 -10 -2 -10 -11 0 -10 -3 -14 -6 -11 -10 9 -64 -32
-64 -48 0 -8 -4 -16 -9 -20 -15 -8 -9 38 7 54 10 10 13 55 12 195 -2 327 -2
326 18 325 10 0 12 -3 5 -6z m-620 -29 c17 -23 25 -25 59 -20 43 7 44 6 21
-41 -19 -40 -52 -57 -88 -43 -14 5 -31 7 -38 4 -7 -2 -24 7 -37 21 l-24 25 39
40 c22 22 41 40 43 40 2 0 13 -12 25 -26z m198 -151 c19 -21 55 -54 79 -75 48
-38 47 -56 -1 -62 -13 -2 -29 -5 -35 -7 -6 -2 -30 20 -53 49 -45 56 -76 66
-118 37 -20 -14 -23 -13 -43 12 -20 26 -20 28 -4 40 10 7 27 13 38 13 12 1 32
7 46 15 38 22 54 18 91 -22z m885 -69 c-4 -11 -2 -15 8 -11 10 4 13 1 9 -9 -4
-11 -9 -12 -16 -5 -15 15 -30 14 -21 -1 5 -7 3 -8 -5 -4 -9 6 -8 13 5 27 21
23 28 24 20 3z m-696 -100 c0 -18 -24 -44 -40 -44 -25 0 -26 25 -2 39 19 11
42 14 42 5z"/>
<path d="M1084 1132 c-47 -32 -59 -117 -21 -152 25 -25 74 -21 95 7 17 23 15
36 -9 67 -23 30 -52 35 -47 9 2 -10 10 -18 17 -18 17 0 26 -21 13 -29 -5 -3
-19 2 -31 10 -32 23 -26 68 10 72 32 4 79 -46 80 -86 0 -15 3 -21 6 -14 9 24
-8 81 -33 112 -25 29 -57 38 -80 22z"/>
<path d="M440 795 c0 -20 25 -30 48 -20 16 8 16 8 0 12 -10 3 -18 9 -18 14 0
5 -7 9 -15 9 -8 0 -15 -7 -15 -15z"/>
</g>
</svg>
